# xmcd
#
# Track frame offsets:
#	182
#	34450
#	56400
#	77842
#	99177
#	111095
#	133310
#	145670
#	179525
#	193190
#	206007
#
# Disc length: 3555 seconds
#
# Revision: 1
# Processed by: cddbd v1.4PL0 Copyright (c) Steve Scherf et al.
# Submitted via: CDmax 1.8
#
DISCID=a00de10b
DTITLE=Feedback - Feedback Live
DYEAR=1991
DGENRE=Blues
TTITLE0=Intro - Viel zu jung
TTITLE1=Blues in my house
TTITLE2=Trinken
TTITLE3=Sag was dich bedrückt
TTITLE4=Steig aus
TTITLE5=Ich rauch nicht mehr
TTITLE6=Hahn auf'm Mist
TTITLE7=Die Nacht hat alles schwarz gemacht
TTITLE8=Verlier den Mut nicht
TTITLE9=Harp Boogie
TTITLE10=Das Mädchen - Boogie Time
EXTD=
EXTT0=
EXTT1=
EXTT2=
EXTT3=
EXTT4=
EXTT5=
EXTT6=
EXTT7=
EXTT8=
EXTT9=
EXTT10=
PLAYORDER=
